<svg width="59" height="59" viewBox="0 0 59 59" fill="none" xmlns="http://www.w3.org/2000/svg">
<path d="M17.2084 22.125C18.8383 22.125 20.4015 21.4775 21.5541 20.3249C22.7067 19.1724 23.3542 17.6091 23.3542 15.9792C23.3542 14.3492 22.7067 12.786 21.5541 11.6334C20.4015 10.4808 18.8383 9.83334 17.2084 9.83334C15.5784 9.83334 14.0152 10.4808 12.8626 11.6334C11.71 12.786 11.0625 14.3492 11.0625 15.9792C11.0625 17.6091 11.71 19.1724 12.8626 20.3249C14.0152 21.4775 15.5784 22.125 17.2084 22.125ZM17.2084 27.0417C15.7556 27.0417 14.3171 26.7555 12.9749 26.1996C11.6328 25.6436 10.4132 24.8288 9.38598 23.8015C8.35874 22.7743 7.54388 21.5548 6.98794 20.2126C6.43199 18.8704 6.14585 17.4319 6.14585 15.9792C6.14585 14.5264 6.43199 13.0879 6.98794 11.7457C7.54388 10.4036 8.35874 9.18405 9.38598 8.1568C10.4132 7.12955 11.6328 6.3147 12.9749 5.75875C14.3171 5.20281 15.7556 4.91667 17.2084 4.91667C20.1423 4.91667 22.9561 6.08218 25.0307 8.1568C27.1053 10.2314 28.2709 13.0452 28.2709 15.9792C28.2709 18.9131 27.1053 21.7269 25.0307 23.8015C22.9561 25.8762 20.1423 27.0417 17.2084 27.0417ZM43.0209 31.9583C44.3248 31.9583 45.5754 31.4403 46.4975 30.5183C47.4195 29.5962 47.9375 28.3457 47.9375 27.0417C47.9375 25.7377 47.4195 24.4871 46.4975 23.5651C45.5754 22.643 44.3248 22.125 43.0209 22.125C41.7169 22.125 40.4663 22.643 39.5442 23.5651C38.6222 24.4871 38.1042 25.7377 38.1042 27.0417C38.1042 28.3457 38.6222 29.5962 39.5442 30.5183C40.4663 31.4403 41.7169 31.9583 43.0209 31.9583ZM43.0209 36.875C40.4129 36.875 37.9117 35.839 36.0676 33.9949C34.2235 32.1508 33.1875 29.6496 33.1875 27.0417C33.1875 24.4337 34.2235 21.9326 36.0676 20.0885C37.9117 18.2443 40.4129 17.2083 43.0209 17.2083C45.6288 17.2083 48.13 18.2443 49.9741 20.0885C51.8182 21.9326 52.8542 24.4337 52.8542 27.0417C52.8542 29.6496 51.8182 32.1508 49.9741 33.9949C48.13 35.839 45.6288 36.875 43.0209 36.875ZM49.1667 51.625V50.3958C49.1667 48.7659 48.5192 47.2026 47.3666 46.0501C46.2141 44.8975 44.6508 44.25 43.0209 44.25C41.3909 44.25 39.8277 44.8975 38.6751 46.0501C37.5225 47.2026 36.875 48.7659 36.875 50.3958V51.625H31.9584V50.3958C31.9584 48.9431 32.2445 47.5046 32.8004 46.1624C33.3564 44.8202 34.1712 43.6007 35.1985 42.5735C36.2257 41.5462 37.4453 40.7314 38.7874 40.1754C40.1296 39.6195 41.5681 39.3333 43.0209 39.3333C44.4736 39.3333 45.9121 39.6195 47.2543 40.1754C48.5965 40.7314 49.816 41.5462 50.8432 42.5735C51.8705 43.6007 52.6853 44.8202 53.2413 46.1624C53.7972 47.5046 54.0834 48.9431 54.0834 50.3958V51.625H49.1667ZM24.5834 51.625V41.7917C24.5834 40.8232 24.3926 39.8642 24.022 38.9694C23.6513 38.0746 23.1081 37.2616 22.4233 36.5768C21.7384 35.8919 20.9254 35.3487 20.0306 34.9781C19.1359 34.6074 18.1769 34.4167 17.2084 34.4167C16.2399 34.4167 15.2808 34.6074 14.3861 34.9781C13.4913 35.3487 12.6783 35.8919 11.9934 36.5768C11.3086 37.2616 10.7654 38.0746 10.3947 38.9694C10.0241 39.8642 9.83335 40.8232 9.83335 41.7917V51.625H4.91669V41.7917C4.91669 38.5317 6.2117 35.4053 8.51683 33.1001C10.822 30.795 13.9484 29.5 17.2084 29.5C20.4683 29.5 23.5947 30.795 25.8999 33.1001C28.205 35.4053 29.5 38.5317 29.5 41.7917V51.625H24.5834Z" fill="#7D7D7D"/>
</svg>
